<svg xmlns="http://www.w3.org/2000/svg" xmlns:xlink="http://www.w3.org/1999/xlink" version="1.1" width="256" height="256" viewBox="0 0 256 256" xml:space="preserve">

<defs>
</defs>
<g style="stroke: none; stroke-width: 0; stroke-dasharray: none; stroke-linecap: butt; stroke-linejoin: miter; stroke-miterlimit: 10; fill: none; fill-rule: nonzero; opacity: 1;" transform="translate(1.4065934065934016 1.4065934065934016) scale(2.81 2.81)" >
	<path d="M 83.849 46.935 c -0.051 -0.083 -0.618 0.389 -1.261 1.048 c -1.905 1.953 -3.998 3.193 -6.668 3.952 c -2.064 0.587 -5.22 0.587 -7.283 0 c -5.732 -1.629 -9.724 -6.161 -10.515 -11.934 c -0.789 -5.765 2.573 -11.784 8.022 -14.357 l 1.51 -0.713 l -1.604 -0.747 c -2.069 -0.963 -4.702 -1.82 -7.077 -2.303 c -2.731 -0.555 -7.812 -0.695 -10.663 -0.295 c -14.068 1.977 -24.851 12.613 -27.002 26.631 c -0.362 2.361 -0.275 7.158 0.176 9.724 c 2.481 14.098 14.367 24.794 28.713 25.839 l 0 0 c 7.813 0.569 15.67 -1.679 21.609 -6.183 c 6.275 -4.759 10.367 -11.199 11.991 -18.872 c 0.51 -2.409 0.697 -7.235 0.378 -9.771 C 84.047 47.927 83.9 47.018 83.849 46.935 z" style="stroke: none; stroke-width: 1; stroke-dasharray: none; stroke-linecap: butt; stroke-linejoin: miter; stroke-miterlimit: 10; fill: rgb(247,139,36); fill-rule: nonzero; opacity: 1;" transform=" matrix(1 0 0 1 0 0) " stroke-linecap="round" />
	<path d="M 70.013 8.013 c -5.169 -3.445 -10.938 -5.74 -17.363 -6.909 c -3.089 -0.562 -10.092 -0.703 -13.4 -0.27 C 29.133 2.16 20.2 6.478 13.148 13.455 c -3.77 3.73 -6.426 7.413 -8.734 12.115 C 1.331 31.848 0.005 37.688 0 45.009 c -0.005 7.312 1.301 13.037 4.434 19.439 c 5.715 11.677 16.516 20.41 29.269 23.666 c 1.475 0.377 5.452 1.066 6.964 1.206 h 0 c 0.415 0.039 2.284 0.082 4.152 0.096 c 3.424 0.026 4.124 -0.186 1.348 -0.408 c -2.318 -0.186 -5.833 -0.967 -8.57 -1.905 C 25.991 83.128 16.84 73.973 13.016 62.513 c -2.168 -6.498 -2.574 -13.08 -1.221 -19.796 C 14.531 29.136 24.501 17.921 37.767 13.5 c 17.187 -5.727 35.75 0.67 45.7 15.751 c 3.273 4.961 5.646 11.594 6.11 17.079 c 0.094 1.106 0.168 1.374 0.311 1.119 c 0.262 -0.468 0.037 -6.069 -0.352 -8.761 C 87.719 26.115 80.753 15.17 70.013 8.013 z" style="stroke: none; stroke-width: 1; stroke-dasharray: none; stroke-linecap: butt; stroke-linejoin: miter; stroke-miterlimit: 10; fill: rgb(247,139,36); fill-rule: nonzero; opacity: 1;" transform=" matrix(1 0 0 1 0 0) " stroke-linecap="round" />
</g>
</svg>
